<svg width="32" height="32" viewBox="0 0 32 32" fill="none" xmlns="http://www.w3.org/2000/svg">
    <path d="M8.4 28H24C25.1046 28 26 27.1046 26 26V23.2H8.4C7.07452 23.2 6 24.2745 6 25.6C6 26.9255 7.07452 28 8.4 28Z" fill="#D9D9D9"/>
    <path d="M6 25.6C6 24.2745 7.07452 23.2 8.4 23.2H26V26C26 27.1046 25.1046 28 24 28H8.4C7.07452 28 6 26.9255 6 25.6ZM6 25.6V6C6 4.89543 6.89543 4 8 4H24C25.1046 4 26 4.89543 26 6V23.1906M12 16H20M11 12H21" stroke="#616E7C" stroke-width="1.5" stroke-linecap="round" stroke-linejoin="round"/>
</svg>
