<svg width="32" height="32" viewBox="0 0 32 32" fill="none" xmlns="http://www.w3.org/2000/svg">
    <path d="M5.22937 8.06666C4.46782 8.28707 4 9.01178 4 9.80459V25.2054C4 26.4186 5.07138 27.3551 6.27831 27.2323C7.44613 27.1135 8.85338 27.0001 9.96934 27.0001C12.3121 27.0001 16 27.5001 16 27.5001V24.4959C16 24.4959 12.8742 24.0001 11 24.0001C10.3454 24.0001 9.59912 24.0607 8.90505 24.1396C7.65349 24.2818 6.5086 23.3246 6.51783 22.065L6.62262 7.77295C6.1309 7.83204 5.64595 7.94609 5.22937 8.06666Z" fill="#D9D9D9"/>
    <path d="M25.7313 27.2398C26.9349 27.3605 28 26.4252 28 25.2156V9.74688C28 8.98371 27.5647 8.28046 26.8305 8.07208C26.4756 7.97134 26.0599 7.87772 25.6123 7.82393L25.5162 22.1335C25.5078 23.3873 24.3597 24.3267 23.1156 24.1709C22.3564 24.0758 21.5334 24.0001 20.8368 24.0001C18.9625 24.0001 16 24.4959 16 24.4959V27.5001C16 27.5001 19.5652 27.0001 21.908 27.0001C23.0475 27.0001 24.5197 27.1183 25.7313 27.2398Z" fill="#D9D9D9"/>
    <path d="M16 27.5001C16 27.5001 12.3121 27.0001 9.96934 27.0001C8.85338 27.0001 7.44613 27.1135 6.27831 27.2323C5.07138 27.3551 4 26.4186 4 25.2054V9.80459C4 9.01178 4.46782 8.28707 5.22937 8.06666C5.64595 7.94609 6.1309 7.83204 6.62262 7.77295M16 27.5001C16 27.5001 19.5652 27.0001 21.908 27.0001C23.0475 27.0001 24.5197 27.1183 25.7313 27.2398C26.9349 27.3605 28 26.4252 28 25.2156V9.74688C28 8.98371 27.5647 8.28046 26.8305 8.07208C26.4756 7.97134 26.0599 7.87772 25.6123 7.82393M16 27.5001V24.4959M16 24.4959C16 24.4959 12.8742 24.0001 11 24.0001C10.3454 24.0001 9.59912 24.0607 8.90505 24.1396C7.65349 24.2818 6.5086 23.3246 6.51783 22.065L6.62262 7.77295M16 24.4959C16 24.4959 18.9625 24.0001 20.8368 24.0001C21.5334 24.0001 22.3564 24.0758 23.1156 24.1709C24.3597 24.3267 25.5078 23.3873 25.5162 22.1335L25.6123 7.82393M16 24.4959V5M6.62262 7.77295V6.67939C6.62262 5.70827 7.32028 4.87673 8.28298 4.74913C9.22385 4.62442 10.3927 4.5 11.3113 4.5C13.1527 4.5 16 5 16 5M25.6123 7.82393V6.68655C25.6123 5.71227 24.9104 4.8792 23.9443 4.75356C22.974 4.62738 21.7586 4.5 20.8061 4.5C18.9191 4.5 16 5 16 5" stroke="#616E7C" stroke-width="1.5" stroke-linecap="round" stroke-linejoin="round"/>
</svg>
